<svg id="Layer_1" data-name="Layer 1" xmlns="http://www.w3.org/2000/svg" xmlns:xlink="http://www.w3.org/1999/xlink" viewBox="0 0 1000 1000"><defs><style>.cls-1{fill:url(#linear-gradient);}.cls-2{fill:url(#linear-gradient-2);}.cls-3{fill:url(#linear-gradient-3);}.cls-4{fill:url(#linear-gradient-4);}.cls-5{fill:url(#linear-gradient-5);}</style><linearGradient id="linear-gradient" x1="269.82" y1="153.29" x2="734.04" y2="153.29" gradientUnits="userSpaceOnUse"><stop offset="0" stop-color="#ea5459"/><stop offset="1" stop-color="#f7ba2c"/></linearGradient><linearGradient id="linear-gradient-2" x1="269.82" y1="846.34" x2="734.04" y2="846.34" xlink:href="#linear-gradient"/><linearGradient id="linear-gradient-3" x1="-0.23" y1="486.62" x2="317.43" y2="486.62" xlink:href="#linear-gradient"/><linearGradient id="linear-gradient-4" x1="682.33" y1="486.62" x2="1000" y2="486.62" xlink:href="#linear-gradient"/><linearGradient id="linear-gradient-5" x1="368.04" y1="486.31" x2="635.5" y2="486.31" xlink:href="#linear-gradient"/></defs><path class="cls-1" d="M734,212.86q-4.35.4-8.6,1.09c-48.43,7.89-87.27,43.17-98.84,88.78-.34,1.39-.65,2.74-1,4.16-.52-7.72-1.34-15.41-2.39-23v-.07A341.73,341.73,0,0,0,606.12,214a348,348,0,0,0-26.82-57.42A239.33,239.33,0,0,0,532.13,214a230.38,230.38,0,0,0-28.32,76.63c-.75,4.16-1.4,8.32-1.88,12.55-.41-3.63-1-7.2-1.57-10.76A230.37,230.37,0,0,0,471.73,214a239.09,239.09,0,0,0-47.17-57.42A348,348,0,0,0,397.74,214,344,344,0,0,0,381,281.28q-1.84,12.68-2.73,25.61c-.24-1.09-.48-2.18-.76-3.27-11.29-46-50.3-81.75-99-89.67q-4.25-.69-8.6-1.09a464,464,0,0,1,46.45-112.6c1-1.72,2-3.43,3-5.11a476.38,476.38,0,0,1,59.21-79.57c1.12-1.26,2.28-2.51,3.45-3.73,3.85-4.13,7.81-8.15,11.84-12.15a370.41,370.41,0,0,1,107.4,63.66,7.57,7.57,0,0,1,.75.63c.89-.79,1.78-1.55,2.7-2.31A371.56,371.56,0,0,1,610.08-.3c4.85,4.79,9.53,9.64,14.17,14.62v0c1.16,1.22,2.28,2.44,3.38,3.69a477,477,0,0,1,57,77.09c1,1.69,2,3.4,3,5.12A464,464,0,0,1,734,212.86Z"/><path class="cls-2" d="M269.82,786.77q4.35-.39,8.6-1.08c48.43-7.89,87.27-43.17,98.84-88.78.34-1.39.65-2.74,1-4.16.51,7.72,1.33,15.41,2.38,23v.07a341.89,341.89,0,0,0,17.14,69.9,348,348,0,0,0,26.82,57.42,239.09,239.09,0,0,0,47.17-57.42,230.36,230.36,0,0,0,28.32-76.64c.75-4.15,1.4-8.31,1.88-12.54.41,3.63,1,7.2,1.57,10.76a230.45,230.45,0,0,0,28.63,78.42,239.33,239.33,0,0,0,47.17,57.42,347.68,347.68,0,0,0,26.82-57.43,344.6,344.6,0,0,0,16.8-67.32c1.22-8.45,2.15-17,2.73-25.61.23,1.09.47,2.18.75,3.27,11.29,46,50.3,81.74,99,89.66q4.24.71,8.6,1.09a464.07,464.07,0,0,1-46.45,112.61c-1,1.71-2,3.43-3,5.11a476.44,476.44,0,0,1-59.22,79.57c-1.12,1.26-2.28,2.51-3.44,3.73-3.86,4.13-7.82,8.15-11.85,12.15a370.44,370.44,0,0,1-107.4-63.67,6.33,6.33,0,0,1-.75-.62c-.89.79-1.77,1.55-2.7,2.31a371.79,371.79,0,0,1-105.45,62c-4.85-4.79-9.52-9.64-14.17-14.62v0c-1.16-1.22-2.28-2.44-3.37-3.69a475.48,475.48,0,0,1-57-77.1c-1-1.68-2-3.4-3-5.11A464.07,464.07,0,0,1,269.82,786.77Z"/><path class="cls-3" d="M220.2,262.17c.27,2.8.65,5.58,1.13,8.32,8.15,46.83,44.64,84.38,91.8,95.57,1.44.33,2.84.63,4.3.92-8,.5-15.94,1.29-23.75,2.32h-.07a372.94,372.94,0,0,0-131.67,42.5,244.52,244.52,0,0,0,59.39,45.61,248.63,248.63,0,0,0,79.24,27.39c4.3.73,8.6,1.36,13,1.82-3.75.39-7.44.92-11.12,1.52a248.47,248.47,0,0,0-81.09,27.69,244.48,244.48,0,0,0-59.39,45.6,370.51,370.51,0,0,0,59.39,25.94A375.5,375.5,0,0,0,291,603.61q13.11,1.78,26.48,2.64c-1.12.23-2.25.46-3.38.73-47.61,10.92-84.53,48.64-92.72,95.77q-.72,4.11-1.13,8.32a498.45,498.45,0,0,1-116.44-44.92c-1.78-1-3.55-1.95-5.29-2.9A492.34,492.34,0,0,1,16.18,606c-1.29-1.09-2.59-2.21-3.85-3.34C8.06,598.93,3.9,595.1-.23,591.2A354.14,354.14,0,0,1,65.6,487.34a6.31,6.31,0,0,1,.65-.72c-.82-.86-1.61-1.72-2.39-2.61A354.84,354.84,0,0,1-.23,382c4.94-4.68,10-9.2,15.12-13.69h0c1.26-1.12,2.52-2.21,3.82-3.27A492.37,492.37,0,0,1,98.47,310c1.74-1,3.51-1.95,5.29-2.9A498.45,498.45,0,0,1,220.2,262.17Z"/><path class="cls-4" d="M779.56,711.07q-.4-4.22-1.12-8.32c-8.16-46.83-44.64-84.39-91.81-95.57-1.43-.33-2.83-.63-4.3-.93,8-.49,15.94-1.29,23.76-2.31h.06a373.82,373.82,0,0,0,72.29-16.57,370.8,370.8,0,0,0,59.38-25.94,244.43,244.43,0,0,0-59.38-45.6,249,249,0,0,0-79.25-27.4c-4.3-.72-8.6-1.35-13-1.81,3.76-.4,7.44-.93,11.13-1.52a248.87,248.87,0,0,0,81.09-27.69,244.47,244.47,0,0,0,59.38-45.61,372.59,372.59,0,0,0-59.38-25.94,376.48,376.48,0,0,0-69.62-16.23q-13.11-1.78-26.49-2.65c1.13-.23,2.26-.46,3.38-.72,47.61-10.92,84.54-48.65,92.73-95.77.48-2.74.85-5.52,1.12-8.32A498.53,498.53,0,0,1,896,307.09c1.78,1,3.55,1.94,5.29,2.9a492.26,492.26,0,0,1,82.28,57.26c1.3,1.09,2.6,2.21,3.86,3.33,4.27,3.73,8.43,7.56,12.56,11.45a353.88,353.88,0,0,1-65.83,103.86,6.51,6.51,0,0,1-.65.73c.82.86,1.6,1.71,2.39,2.61a354.93,354.93,0,0,1,64.09,102c-5,4.69-10,9.21-15.12,13.7h0c-1.27,1.12-2.53,2.21-3.83,3.27a491.85,491.85,0,0,1-79.72,55.08c-1.74,1-3.51,1.94-5.29,2.9A498.53,498.53,0,0,1,779.56,711.07Z"/><path class="cls-5" d="M629,502.13c-.06-.2-.11-.39-.15-.59a253.1,253.1,0,0,0-25.44-61.64c-.53-.94-1.09-1.88-1.63-2.8a260.39,260.39,0,0,0-31.18-42.19c-.59-.69-1.21-1.36-1.84-2v-.07c-2.6-2.74-5.12-5.35-7.76-8-4.42-4.43-9-8.69-13.78-12.78a268.25,268.25,0,0,0-43.68-30.67l-1.73-1-.12.05a270.73,270.73,0,0,0-45.29,31.59q-7.12,6.14-13.79,12.78c-2.2,2.18-4.35,4.4-6.48,6.66-.64.67-1.27,1.36-1.89,2a261.55,261.55,0,0,0-32.41,43.55c-.54.92-1.1,1.86-1.64,2.8a254.26,254.26,0,0,0-25.43,61.64c0,.2-.09.39-.14.59a250.38,250.38,0,0,0-6.26,32.43l-.11,32.6-.1,29-.13,35.1v.9h77.43a187.35,187.35,0,0,1-10.05-40c-.58-4.17-1-8.4-1.31-12.66-.3-4.09-.45-8.2-.45-12.36h67.23v-.58a5.62,5.62,0,0,0,0,.58h1.83c0-.31,0-.59,0-.9v.9H570c0,4.16-.15,8.27-.45,12.36-.32,4.69-.82,9.35-1.49,13.94a186.48,186.48,0,0,1-9.87,38.73h77v-.9l.12-33.42v-.74l.11-30,.11-30.76A253.13,253.13,0,0,0,629,502.13Zm-184.22,0a190.2,190.2,0,0,1,14.68-31.43,194.48,194.48,0,0,1,24.71-33.6,197.09,197.09,0,0,1,17.23-16.71c.13-.12.28-.23.41-.34.48.4,1,.83,1.45,1.25a199.48,199.48,0,0,1,16.18,15.8,194,194,0,0,1,24.71,33.6,190.25,190.25,0,0,1,14.69,31.43Z"/></svg>